<?xml version="1.0" encoding="utf-8"?>
<!-- Generator: Adobe Illustrator 21.0.0, SVG Export Plug-In . SVG Version: 6.00 Build 0)  -->
<svg version="1.1" id="Layer_1" xmlns="http://www.w3.org/2000/svg" xmlns:xlink="http://www.w3.org/1999/xlink" x="0px" y="0px"
	 viewBox="0 0 899.1 899.6" style="enable-background:new 0 0 899.1 899.6;" xml:space="preserve">
<style type="text/css">
	.st0{fill:#EE9800;}
	.st1{fill:#FFFFFF;}
</style>
<circle class="st0" cx="449.3" cy="449.8" r="449.8"/>
<g>
	<path id="XMLID_12_" class="st1" d="M510,401.4c0,8.1-1.6,15.6-4.9,22.7c-3.2,7-7.7,13.2-13.3,18.6c-5.7,5.3-12.2,9.6-19.7,12.7
		c-7.5,3.1-15.4,4.8-23.9,4.8c-8.2,0-16-1.6-23.1-4.8c-7.1-3.1-13.5-7.4-19.1-12.7c-5.5-5.3-9.8-11.5-13-18.6
		c-3.1-7-4.8-14.6-4.8-22.7c0-8.2,1.6-16,4.8-23.1c3.1-7.1,7.5-13.5,13-18.9c5.5-5.4,11.9-9.7,19.1-12.7c7.1-3.1,14.8-4.6,23.1-4.6
		c8.5,0,16.5,1.5,23.9,4.6c7.5,3.1,14.1,7.3,19.7,12.7c5.6,5.4,10.1,11.7,13.3,18.9C508.4,385.5,510,393.2,510,401.4z M498.3,542.8
		v243.8h-101V542.8H498.3z"/>
	<path id="XMLID_5_" class="st1" d="M744.1,325.5L448.6,113l0,0l0,0L154.1,325.5c-4.3,3.1-5.1,9.2-2,13.5l44.4,61.3
		c3.1,4.3,9.2,5.3,13.6,2.2L449.6,230l239.5,172.5c4.3,3.1,10.4,2.1,13.5-2.2l44-61.3C749.7,334.7,748.4,328.6,744.1,325.5z"/>
</g>
</svg>
