<svg xmlns="http://www.w3.org/2000/svg" viewBox="0 0 109.91 36.369"><defs><style>.a{fill:#0069e0;}.b{fill:#ee9800;}</style></defs><g transform="translate(0 -2.1)"><path class="a" d="M14.237,396.368a2.893,2.893,0,0,1-.473.473,1.029,1.029,0,0,1-.645.173,1.385,1.385,0,0,1-.723-.191l-.723-.427a5.348,5.348,0,0,0-.941-.427,4.067,4.067,0,0,0-1.341-.191,3.743,3.743,0,0,0-1.718.368,3.226,3.226,0,0,0-1.2,1.045,4.77,4.77,0,0,0-.7,1.668,10.039,10.039,0,0,0-.227,2.223,6.789,6.789,0,0,0,1,4,3.215,3.215,0,0,0,2.764,1.4,3.814,3.814,0,0,0,1.491-.236,4.692,4.692,0,0,0,.932-.523c.255-.191.491-.368.7-.532a1.3,1.3,0,0,1,.809-.245,1.121,1.121,0,0,1,.977.473l1.568,1.936a8.6,8.6,0,0,1-1.764,1.564,8.946,8.946,0,0,1-1.891.941,10.027,10.027,0,0,1-1.945.473,13.726,13.726,0,0,1-1.9.132,8.19,8.19,0,0,1-3.168-.627A7.748,7.748,0,0,1,2.486,408a8.653,8.653,0,0,1-1.814-2.941,11.907,11.907,0,0,1-.086-7.636,8.279,8.279,0,0,1,1.727-2.95,8.053,8.053,0,0,1,2.827-1.964,9.9,9.9,0,0,1,3.9-.714,9.476,9.476,0,0,1,3.732.682,8.974,8.974,0,0,1,2.9,1.991Z" transform="translate(0 -371.986)"/><path class="a" d="M381.582,391.8a10.406,10.406,0,0,1,3.75.645,8.234,8.234,0,0,1,2.9,1.85,8.378,8.378,0,0,1,1.886,2.923,10.581,10.581,0,0,1,.673,3.864,10.7,10.7,0,0,1-.673,3.9,8.41,8.41,0,0,1-1.886,2.95,8.276,8.276,0,0,1-2.9,1.868,10.31,10.31,0,0,1-3.75.655,10.442,10.442,0,0,1-3.777-.655,8.474,8.474,0,0,1-2.932-1.868,8.253,8.253,0,0,1-1.9-2.95,10.7,10.7,0,0,1-.673-3.9,10.487,10.487,0,0,1,.673-3.864,8.12,8.12,0,0,1,4.832-4.773A10.522,10.522,0,0,1,381.582,391.8Zm0,14.637a3.081,3.081,0,0,0,2.75-1.318,9.513,9.513,0,0,0,0-8,3.08,3.08,0,0,0-2.75-1.309,3.16,3.16,0,0,0-2.809,1.309,9.425,9.425,0,0,0,0,8A3.145,3.145,0,0,0,381.582,406.436Z" transform="translate(-355.377 -371.986)"/><path class="a" d="M844.4,410.168V392.077h3.35a1.5,1.5,0,0,1,.845.227,1.215,1.215,0,0,1,.482.682l.314,1.045a13.477,13.477,0,0,1,1.082-.909,6.307,6.307,0,0,1,1.2-.7,7.305,7.305,0,0,1,1.377-.455,7.49,7.49,0,0,1,1.614-.164,6.391,6.391,0,0,1,2.627.514,5.42,5.42,0,0,1,1.927,1.432,6.169,6.169,0,0,1,1.186,2.182,9.039,9.039,0,0,1,.4,2.75v11.5h-5.409v-11.5a3.186,3.186,0,0,0-.609-2.068,2.189,2.189,0,0,0-1.8-.741,3.761,3.761,0,0,0-1.673.382,6.579,6.579,0,0,0-1.5,1.027v12.891H844.4Z" transform="translate(-806.018 -371.986)"/><path class="b" d="M1289.223,275.277a2.817,2.817,0,0,1-.264,1.214,3.228,3.228,0,0,1-.714,1,3.51,3.51,0,0,1-1.055.682,3.275,3.275,0,0,1-1.282.255,3.04,3.04,0,0,1-1.236-.255,3.529,3.529,0,0,1-1.023-.682,3.174,3.174,0,0,1-.7-1,2.948,2.948,0,0,1-.254-1.214,3.039,3.039,0,0,1,.254-1.236,3.243,3.243,0,0,1,1.718-1.7,3.11,3.11,0,0,1,1.236-.245,3.352,3.352,0,0,1,1.282.245,3.292,3.292,0,0,1,1.055.682,3.253,3.253,0,0,1,.714,1.014A2.9,2.9,0,0,1,1289.223,275.277Zm-.627,7.573v13.059h-5.409V282.85Z" transform="translate(-1224.395 -257.727)"/><path class="a" d="M1496.536,396.464a2.9,2.9,0,0,1-.473.473,1.029,1.029,0,0,1-.646.173,1.385,1.385,0,0,1-.723-.191l-.723-.427a5.349,5.349,0,0,0-.941-.427,4.067,4.067,0,0,0-1.341-.191,3.743,3.743,0,0,0-1.718.368,3.227,3.227,0,0,0-1.2,1.045,4.773,4.773,0,0,0-.7,1.668,10.038,10.038,0,0,0-.227,2.223,6.789,6.789,0,0,0,1,4,3.215,3.215,0,0,0,2.764,1.4,3.815,3.815,0,0,0,1.491-.236,4.569,4.569,0,0,0,.932-.523c.255-.191.491-.368.7-.532a1.3,1.3,0,0,1,.809-.245,1.121,1.121,0,0,1,.977.473l1.568,1.936a8.6,8.6,0,0,1-1.764,1.564,8.942,8.942,0,0,1-1.891.941,10.032,10.032,0,0,1-1.945.473,13.732,13.732,0,0,1-1.9.132,8.19,8.19,0,0,1-3.168-.627,7.749,7.749,0,0,1-2.65-1.823,8.655,8.655,0,0,1-1.814-2.941,10.974,10.974,0,0,1-.673-3.977,11.122,11.122,0,0,1,.586-3.655,8.279,8.279,0,0,1,1.727-2.95,8.053,8.053,0,0,1,2.827-1.964,9.9,9.9,0,0,1,3.9-.714,9.476,9.476,0,0,1,3.732.682,8.971,8.971,0,0,1,2.9,1.991Z" transform="translate(-1414.922 -372.082)"/><path class="a" d="M1875.659,408.928a2.5,2.5,0,0,1-1.159-.209,1.593,1.593,0,0,1-.655-.873l-.382-1c-.455.382-.891.723-1.309,1.014a8.235,8.235,0,0,1-1.3.741,6.423,6.423,0,0,1-1.432.455,8.7,8.7,0,0,1-1.682.15,7.409,7.409,0,0,1-2.25-.323,4.713,4.713,0,0,1-1.718-.955,4.131,4.131,0,0,1-1.091-1.568,5.687,5.687,0,0,1-.382-2.159,4.585,4.585,0,0,1,.486-1.977,4.9,4.9,0,0,1,1.691-1.845,10.707,10.707,0,0,1,3.245-1.391,19.87,19.87,0,0,1,5.146-.559v-.773a3.359,3.359,0,0,0-.655-2.314,2.388,2.388,0,0,0-1.859-.714,4.863,4.863,0,0,0-1.568.209,6.956,6.956,0,0,0-1.091.473c-.318.173-.632.332-.932.473a2.553,2.553,0,0,1-1.082.209,1.616,1.616,0,0,1-.95-.273,1.985,1.985,0,0,1-.618-.673l-.977-1.691a11.072,11.072,0,0,1,3.636-2.155,12.706,12.706,0,0,1,4.282-.7,7.869,7.869,0,0,1,2.959.532,6.375,6.375,0,0,1,2.232,1.482,6.5,6.5,0,0,1,1.4,2.259,8.089,8.089,0,0,1,.486,2.859v11.3h-2.477Zm-6.209-3.3a4.263,4.263,0,0,0,1.832-.368,5.585,5.585,0,0,0,1.586-1.186V401.6a14.245,14.245,0,0,0-2.668.209,6.613,6.613,0,0,0-1.659.527,1.951,1.951,0,0,0-.845.723,1.743,1.743,0,0,0-.236.882,1.53,1.53,0,0,0,.5,1.309A2.457,2.457,0,0,0,1869.45,405.632Z" transform="translate(-1777.649 -370.745)"/><path class="a" d="M2304.409,221.4v26.118H2299V221.4Z" transform="translate(-2194.499 -209.332)"/><path class="b" d="M1033.958,13.482,1018.126,2.1h0l-15.777,11.382a.515.515,0,0,0-.1.723l2.377,3.286a.523.523,0,0,0,.727.118l12.832-9.241,12.832,9.241a.517.517,0,0,0,.723-.118l2.355-3.286A.52.52,0,0,0,1033.958,13.482Z" transform="translate(-956.589)"/></g></svg>