<svg xmlns="http://www.w3.org/2000/svg" viewBox="0 0 37 37"><defs><style>.a{fill:none;opacity:0.4;}.b,.c{stroke:none;}.c{fill:#da5c32;}</style></defs><g class="a"><path class="b" d="M18.5,0A18.5,18.5,0,1,1,0,18.5,18.5,18.5,0,0,1,18.5,0Z"/><path class="c" d="M 18.5 29 C 24.28972053527832 29 29 24.28972053527832 29 18.5 C 29 12.710280418396 24.28972053527832 8 18.5 8 C 12.710280418396 8 8 12.710280418396 8 18.5 C 8 24.28972053527832 12.710280418396 29 18.5 29 M 18.5 37 C 8.282732963562012 37 0 28.71726608276367 0 18.5 C 0 8.282732963562012 8.282732963562012 0 18.5 0 C 28.71726608276367 0 37 8.282732963562012 37 18.5 C 37 28.71726608276367 28.71726608276367 37 18.5 37 Z"/></g></svg>